<?xml version="1.0" encoding="UTF-8" standalone="no"?>
<svg
   xmlns:dc="http://purl.org/dc/elements/1.1/"
   xmlns:cc="http://creativecommons.org/ns#"
   xmlns:rdf="http://www.w3.org/1999/02/22-rdf-syntax-ns#"
   xmlns:svg="http://www.w3.org/2000/svg"
   xmlns="http://www.w3.org/2000/svg"
   xmlns:sodipodi="http://sodipodi.sourceforge.net/DTD/sodipodi-0.dtd"
   xmlns:inkscape="http://www.inkscape.org/namespaces/inkscape"
   width="64"
   height="64"
   viewBox="0 0 48 48"
   version="1.1"
   id="svg6"
   sodipodi:docname="allamkincstarBot.svg"
   inkscape:version="0.92.4 (5da689c313, 2019-01-14)">
  <metadata
     id="metadata12">
    <rdf:RDF>
      <cc:Work
         rdf:about="">
        <dc:format>image/svg+xml</dc:format>
        <dc:type
           rdf:resource="http://purl.org/dc/dcmitype/StillImage" />
        <dc:title></dc:title>
      </cc:Work>
    </rdf:RDF>
  </metadata>
  <defs
     id="defs10" />
  <sodipodi:namedview
     pagecolor="#ffffff"
     bordercolor="#666666"
     borderopacity="1"
     objecttolerance="10"
     gridtolerance="10"
     guidetolerance="10"
     inkscape:pageopacity="0"
     inkscape:pageshadow="2"
     inkscape:window-width="1920"
     inkscape:window-height="1017"
     id="namedview8"
     showgrid="false"
     inkscape:zoom="3.6875"
     inkscape:cx="-15.457628"
     inkscape:cy="32"
     inkscape:window-x="-8"
     inkscape:window-y="-8"
     inkscape:window-maximized="1"
     inkscape:current-layer="svg6" />
  <path
     d="M0 24a24 24 0 1 0 48 0 24 24 0 1 0-48 0"
     fill="#1b8fd2"
     opacity=".8"
     id="path2"
     style="fill:#deb306;fill-opacity:1" />
  <path
     d="M32.25 31.084h-7.532L19.2 37.021a1.061 1.061 0 0 1-1.251-1.316l.031-4.622h-1.23C12.47 31.084 9 28.372 9 23.97A7.862 7.862 0 0 1 16.75 16h15.5A7.862 7.862 0 0 1 40 23.97c0 4.402-3.47 7.114-7.75 7.114zM16.531 20.938a2.594 2.594 0 1 0 2.594 2.594 2.594 2.594 0 0 0-2.594-2.594zm7.969-.031a2.594 2.594 0 1 0 2.594 2.593 2.594 2.594 0 0 0-2.594-2.594zm7.969.031a2.594 2.594 0 1 0 2.594 2.594 2.594 2.594 0 0 0-2.594-2.594z"
     fill="#fff"
     fill-rule="evenodd"
     id="path4" />
</svg>
