<?xml version="1.0" encoding="UTF-8" standalone="no"?>
<svg
   xmlns:dc="http://purl.org/dc/elements/1.1/"
   xmlns:cc="http://creativecommons.org/ns#"
   xmlns:rdf="http://www.w3.org/1999/02/22-rdf-syntax-ns#"
   xmlns:svg="http://www.w3.org/2000/svg"
   xmlns="http://www.w3.org/2000/svg"
   xmlns:sodipodi="http://sodipodi.sourceforge.net/DTD/sodipodi-0.dtd"
   xmlns:inkscape="http://www.inkscape.org/namespaces/inkscape"
   id="Layer_1"
   enable-background="new 0 0 512 512"
   height="512"
   viewBox="0 0 512 512"
   width="512"
   version="1.1"
   sodipodi:docname="allamkincstarIcon.svg"
   inkscape:version="0.92.4 (5da689c313, 2019-01-14)">
  <metadata
     id="metadata4656">
    <rdf:RDF>
      <cc:Work
         rdf:about="">
        <dc:format>image/svg+xml</dc:format>
        <dc:type
           rdf:resource="http://purl.org/dc/dcmitype/StillImage" />
        <dc:title></dc:title>
      </cc:Work>
    </rdf:RDF>
  </metadata>
  <defs
     id="defs4654" />
  <sodipodi:namedview
     pagecolor="#ffffff"
     bordercolor="#666666"
     borderopacity="1"
     objecttolerance="10"
     gridtolerance="10"
     guidetolerance="10"
     inkscape:pageopacity="0"
     inkscape:pageshadow="2"
     inkscape:window-width="2400"
     inkscape:window-height="1271"
     id="namedview4652"
     showgrid="false"
     inkscape:zoom="0.65186406"
     inkscape:cx="-9.2956531"
     inkscape:cy="260.48425"
     inkscape:window-x="-9"
     inkscape:window-y="-9"
     inkscape:window-maximized="1"
     inkscape:current-layer="Layer_1" />
  <g
     id="g4649">
    <g
       id="g4607">
      <g
         id="g4605">
        <path
           d="m 512,256 c 0,56.5 -18.31,108.72 -49.31,151.06 C 416.12,470.68 340.88,446.583 256,446.583 171.12,446.583 95.88,470.68 49.31,407.06 18.31,364.72 0,312.5 0,256 0,114.62 114.62,0 256,0 397.38,0 512,114.62 512,256 Z"
           id="path4603"
           inkscape:connector-curvature="0"
           style="fill:#daf1e5;fill-opacity:1" />
      </g>
    </g>
    <g
       id="g4647">
      <path
         d="m 199.97,260.488 h 112.06 v 118.84 H 199.97 Z"
         id="path4611"
         inkscape:connector-curvature="0"
         style="fill:#f7a969" />
      <path
         d="m 256,260.491 h 56.03 v 118.84 H 256 Z"
         id="path4613"
         inkscape:connector-curvature="0"
         style="fill:#ea8d4e" />
      <path
         d="m 385.54,332.29 h -73.51 v 0.002 H 199.97 v -0.002 h -73.5 c -41.82,0 -75.88,33.26 -77.16,74.77 C 95.88,470.68 171.12,512 256,512 c 84.88,0 160.12,-41.32 206.69,-104.94 -1.27,-41.52 -35.32,-74.77 -77.15,-74.77 z"
         id="path4615"
         inkscape:connector-curvature="0"
         style="fill:#584b66" />
      <path
         d="M 462.69,407.06 C 416.12,470.68 340.88,512 256,512 V 332.29 h 129.54 c 41.83,0 75.88,33.25 77.15,74.77 z"
         id="path4617"
         inkscape:connector-curvature="0"
         style="fill:#3d3449" />
      <path
         d="M 312.03,332.29 256,512 199.97,332.29 Z"
         id="path4619"
         inkscape:connector-curvature="0"
         style="fill:#efebdc" />
      <path
         d="M 312.03,332.29 256,512 V 332.29 Z"
         id="path4621"
         inkscape:connector-curvature="0"
         style="fill:#d6cfbd" />
      <path
         d="M 349.62,151.149 C 345.665,91.106 297.097,68.916 256,68.916 c -41.097,0 -89.666,22.19 -93.62,82.233 -10.627,2.056 -18.177,15.995 -16.988,27.265 l 1.822,25.648 c 1.247,11.835 11.65,20.476 23.115,19.19 l 1.977,-0.214 c 23.485,63.063 60.316,69.638 83.694,73.33 23.378,-3.692 60.209,-10.267 83.694,-73.33 l 1.977,0.214 c 11.465,1.286 21.868,-7.354 23.115,-19.19 l 1.822,-25.648 c 1.189,-11.27 -6.36,-25.209 -16.988,-27.265 z"
         id="path4623"
         inkscape:connector-curvature="0"
         style="fill:#ffbf85" />
      <path
         d="m 366.609,178.414 -1.822,25.648 c -1.247,11.835 -11.65,20.476 -23.115,19.19 l -1.977,-0.214 c -8.026,21.528 -17.602,36.48 -27.664,46.971 -19.404,20.242 -40.63,23.924 -56.03,26.359 V 68.916 c 41.097,0 89.665,22.19 93.62,82.233 10.627,2.056 18.176,15.995 16.988,27.265 z"
         id="path4625"
         inkscape:connector-curvature="0"
         style="fill:#f7a969" />
      <path
         d="m 290.367,68.43 c -22.819,-2.91 -45.915,-2.91 -68.734,0 -44.494,5.674 -73.748,49.312 -62.098,92.626 l 5.448,28.697 h 21.294 l 7.088,-34.919 c 2.662,-13.117 15.799,-21.303 28.747,-17.914 l 27.985,7.325 c 3.87,1.013 7.936,1.013 11.806,0 l 27.985,-7.325 c 12.949,-3.389 26.085,4.797 28.748,17.914 l 7.087,34.919 h 21.295 l 5.448,-28.697 C 364.116,117.741 334.861,74.104 290.367,68.43 Z"
         id="path4627"
         inkscape:connector-curvature="0"
         style="fill:#d36c18" />
      <path
         d="m 353.43,157 c -0.28,1.35 -0.61,2.71 -0.97,4.06 l -5.44,28.69 h -21.3 l -6.64,-32.75 -0.44,-2.17 c -2.67,-13.11 -15.8,-21.3 -28.75,-17.91 l -27.99,7.32 c -1.94,0.51 -3.92,0.76 -5.9,0.76 V 66.25 c 11.48,0 22.96,0.73 34.37,2.18 14.01,1.78 26.51,7.33 36.69,15.46 11.09,8.83 19.45,20.72 24.02,34.11 1.11,3.25 2,6.59 2.64,10 1.79,9.32 1.79,19.14 -0.29,29 z"
         id="path4629"
         inkscape:connector-curvature="0"
         style="fill:#af4b00" />
      <path
         d="M 346.333,95.667 355.03,128 H 156.97 L 165,99.333 C 165,96.183 157.17,86.94 157.56,83.89 162.13,47.86 192.89,20 230.17,20 h 51.66 c 37.28,0 68.04,27.86 72.61,63.89 0.39,3.05 -8.107,8.627 -8.107,11.777 z"
         id="path4631"
         inkscape:connector-curvature="0"
         style="fill:#584b66" />
      <path
         d="M 355.03,128 H 256 V 20 h 25.83 c 37.28,0 68.04,27.86 72.61,63.89 0.39,3.05 -8.11,8.63 -8.11,11.78 l 6.01,22.33 z"
         id="path4633"
         inkscape:connector-curvature="0"
         style="fill:#3d3449" />
      <path
         d="M 355.03,93.2 V 128 H 156.97 V 93.2 c 0,-3.15 0.2,-6.26 0.59,-9.31 h 196.88 c 0.39,3.05 0.59,6.16 0.59,9.31 z"
         id="path4635"
         inkscape:connector-curvature="0"
         style="fill:#deb306;fill-opacity:0.74271846" />
      <path
         d="M 355.03,93.2 V 128 H 256 V 83.89 h 98.44 c 0.39,3.05 0.59,6.16 0.59,9.31 z"
         id="path4637"
         inkscape:connector-curvature="0"
         style="fill:#deb306;fill-opacity:1" />
      <path
         d="m 275.826,204.523 c -11.431,-9.718 -28.221,-9.718 -39.652,0 -12.748,10.838 -28.758,17.094 -45.477,17.771 l -18.392,0.744 1.233,7.414 c 6.705,40.322 41.586,69.882 82.461,69.882 41.791,-2.318 76.381,-33.318 83.247,-74.606 l 0.447,-2.69 -18.392,-0.744 c -16.717,-0.677 -32.727,-6.933 -45.475,-17.771 z"
         id="path4639"
         inkscape:connector-curvature="0"
         style="fill:#efebdc" />
      <path
         d="m 339.69,223.04 -0.44,2.69 c -3.43,20.65 -13.8,38.72 -28.53,51.92 -14.73,13.2 -33.82,21.53 -54.72,22.68 v -103.1 c 7.06,0 14.12,2.43 19.83,7.29 12.74,10.84 28.75,17.1 45.47,17.77 z"
         id="path4641"
         inkscape:connector-curvature="0"
         style="fill:#d6cfbd" />
      <path
         d="m 136.5,118 h 239 v 39 h -239 z"
         id="path4643"
         inkscape:connector-curvature="0"
         style="fill:#584b66" />
      <path
         d="m 256,118 h 119.5 v 39 H 256 Z"
         id="path4645"
         inkscape:connector-curvature="0"
         style="fill:#3d3449" />
    </g>
  </g>
</svg>
